HIERARCHY
ROOT hip
{
  OFFSET 0.0 0.0 0.0
  CHANNELS 6 Xposition Yposition Zposition Zrotation Yrotation Xrotation
  JOINT abdomen
  {
    OFFSET 0.0 20.6881 -0.73152
    CHANNELS 3 Zrotation Xrotation Yrotation
    JOINT chest
    {
      OFFSET 0.0 11.7043 -0.48768
      CHANNELS 3 Zrotation Xrotation Yrotation
      JOINT neck
      {
        OFFSET 0.0 22.1894 -2.19456
        CHANNELS 3 Zrotation Xrotation Yrotation
        JOINT head
        {
          OFFSET -0.24384 7.07133 1.2192
          CHANNELS 3 Zrotation Xrotation Yrotation
          JOINT leftEye
          {
            OFFSET 4.14528 8.04674 8.04672
            CHANNELS 3 Zrotation Xrotation Yrotation
            End Site
            {
              OFFSET 1.0 0.0 0.0
            }
          }
          JOINT rightEye
          {
            OFFSET -3.6576 8.04674 8.04672
            CHANNELS 3 Zrotation Xrotation Yrotation
            End Site
            {
              OFFSET 1.0 0.0 0.0
            }
          }
        }
      }
      JOINT rCollar
      {
        OFFSET -2.68224 19.2634 -4.8768
        CHANNELS 3 Zrotation Xrotation Yrotation
        JOINT rShldr
        {
          OFFSET -8.77824 -1.95073 1.46304
          CHANNELS 3 Zrotation Xrotation Yrotation
          JOINT rForeArm
          {
            OFFSET -28.1742 -1.7115 0.48768
            CHANNELS 3 Zrotation Xrotation Yrotation
            JOINT rHand
            {
              OFFSET -22.5879 0.773209 7.07136
              CHANNELS 3 Zrotation Xrotation Yrotation
              JOINT rThumb1
              {
                OFFSET -1.2192 -0.487915 3.41376
                CHANNELS 3 Zrotation Xrotation Yrotation
                JOINT rThumb2
                {
                  OFFSET -3.37035 -0.52449 3.41376
                  CHANNELS 3 Zrotation Xrotation Yrotation
                  End Site
                  {
                    OFFSET -1.78271 -1.18214 1.43049
                  }
                }
              }
              JOINT rIndex1
              {
                OFFSET -7.75947 0.938293 5.60832
                CHANNELS 3 Zrotation Xrotation Yrotation
                JOINT rIndex2
                {
                  OFFSET -2.54057 -0.884171 1.56538
                  CHANNELS 3 Zrotation Xrotation Yrotation
                  End Site
                  {
                    OFFSET -1.62519 -0.234802 1.16502
                  }
                }
              }
              JOINT rMid1
              {
                OFFSET -8.24714 1.18213 3.41376
                CHANNELS 3 Zrotation Xrotation Yrotation
                JOINT rMid2
                {
                  OFFSET -3.10165 -0.590103 1.0647
                  CHANNELS 3 Zrotation Xrotation Yrotation
                  End Site
                  {
                    OFFSET -2.48547 -0.328903 0.83742
                  }
                }
              }
              JOINT rRing1
              {
                OFFSET -8.82822 0.546677 1.51678
                CHANNELS 3 Zrotation Xrotation Yrotation
                JOINT rRing2
                {
                  OFFSET -2.60934 -0.819778 -0.0198488
                  CHANNELS 3 Zrotation Xrotation Yrotation
                  End Site
                  {
                    OFFSET -2.33842 -0.294052 0.168128
                  }
                }
              }
              JOINT rPinky1
              {
                OFFSET -8.27202 -0.0477905 -0.4584
                CHANNELS 3 Zrotation Xrotation Yrotation
                JOINT rPinky2
                {
                  OFFSET -1.82734 -0.647385 -0.700984
                  CHANNELS 3 Zrotation Xrotation Yrotation
                  End Site
                  {
                    OFFSET -1.69225 -0.51767 -0.607171
                  }
                }
              }
            }
          }
        }
      }
      JOINT lCollar
      {
        OFFSET 2.68224 19.2634 -4.8768
        CHANNELS 3 Zrotation Xrotation Yrotation
        JOINT lShldr
        {
          OFFSET 8.77824 -1.95073 1.46304
          CHANNELS 3 Zrotation Xrotation Yrotation
          JOINT lForeArm
          {
            OFFSET 28.1742 -1.7115 0.48768
            CHANNELS 3 Zrotation Xrotation Yrotation
            JOINT lHand
            {
              OFFSET 22.5879 0.773209 7.07136
              CHANNELS 3 Zrotation Xrotation Yrotation
              JOINT lThumb1
              {
                OFFSET 1.2192 -0.487915 3.41376
                CHANNELS 3 Zrotation Xrotation Yrotation
                JOINT lThumb2
                {
                  OFFSET 3.37035 -0.52449 3.41376
                  CHANNELS 3 Zrotation Xrotation Yrotation
                  End Site
                  {
                    OFFSET 1.78271 -1.18214 1.43049
                  }
                }
              }
              JOINT lIndex1
              {
                OFFSET 7.75947 0.938293 5.60832
                CHANNELS 3 Zrotation Xrotation Yrotation
                JOINT lIndex2
                {
                  OFFSET 2.54057 -0.884171 1.56538
                  CHANNELS 3 Zrotation Xrotation Yrotation
                  End Site
                  {
                    OFFSET 1.62519 -0.234802 1.16502
                  }
                }
              }
              JOINT lMid1
              {
                OFFSET 8.24714 1.18213 3.41376
                CHANNELS 3 Zrotation Xrotation Yrotation
                JOINT lMid2
                {
                  OFFSET 3.10165 -0.590103 1.0647
                  CHANNELS 3 Zrotation Xrotation Yrotation
                  End Site
                  {
                    OFFSET 2.48547 -0.328903 0.83742
                  }
                }
              }
              JOINT lRing1
              {
                OFFSET 8.82822 0.546677 1.51678
                CHANNELS 3 Zrotation Xrotation Yrotation
                JOINT lRing2
                {
                  OFFSET 2.60934 -0.819778 -0.0198488
                  CHANNELS 3 Zrotation Xrotation Yrotation
                  End Site
                  {
                    OFFSET 2.33842 -0.294052 0.168128
                  }
                }
              }
              JOINT lPinky1
              {
                OFFSET 8.27202 -0.0477905 -0.4584
                CHANNELS 3 Zrotation Xrotation Yrotation
                JOINT lPinky2
                {
                  OFFSET 1.82734 -0.647385 -0.700984
                  CHANNELS 3 Zrotation Xrotation Yrotation
                  End Site
                  {
                    OFFSET 1.69225 -0.51767 -0.607171
                  }
                }
              }
            }
          }
        }
      }
    }
  }
  JOINT rButtock
  {
    OFFSET -8.77824 4.35084 1.2192
    CHANNELS 3 Zrotation Xrotation Yrotation
    JOINT rThigh
    {
      OFFSET 0.0 -1.70687 -2.19456
      CHANNELS 3 Zrotation Xrotation Yrotation
      JOINT rShin
      {
        OFFSET 0.0 -36.8199 0.73152
        CHANNELS 3 Zrotation Xrotation Yrotation
        JOINT rFoot
        {
          OFFSET 0.73152 -45.1104 -5.12064
          CHANNELS 3 Zrotation Xrotation Yrotation
          End Site
          {
            OFFSET -1.1221 -3.69964 12.103
          }
        }
      }
    }
  }
  JOINT lButtock
  {
    OFFSET 8.77824 4.35084 1.2192
    CHANNELS 3 Zrotation Xrotation Yrotation
    JOINT lThigh
    {
      OFFSET 0.0 -1.70687 -2.19456
      CHANNELS 3 Zrotation Xrotation Yrotation
      JOINT lShin
      {
        OFFSET 0.0 -36.8199 0.73152
        CHANNELS 3 Zrotation Xrotation Yrotation
        JOINT lFoot
        {
          OFFSET -0.73152 -45.1104 -5.12064
          CHANNELS 3 Zrotation Xrotation Yrotation
          End Site
          {
            OFFSET 1.1221 -3.69964 12.103
          }
        }
      }
    }
  }
}
MOTION
Frames: 4
Frame Time: 0.00833333
6.890999999999991 83.7986 -7.21703 -39.4482 89.2284 -41.1635 -0.398334 2.07709 1.49173 -0.00929134 -0.101734 0.447335 2.70059 2.3507 1.24016 -2.19152 -4.36309 1.85002 -0.0 0.0 0.0 -0.0 0.0 0.0 1.77415e-15 6.68073e-14 1.78285e-15 22.4004 10.0612 -0.931732 -5.19991 -2.59738 7.85081 0.0473975 -4.83242 -0.670456 1.41272e-10 -7.4811e-11 -1.08255e-10 2.44943e-10 -1.30242e-10 -1.84893e-10 1.41281e-10 -7.48082e-11 -1.08269e-10 7.73091 5.47488 0.417314 1.41273e-10 -7.48114e-11 -1.08252e-10 2.90554 0.965183 0.102902 1.41286e-10 -7.48115e-11 -1.08254e-10 10.2786 0.731801 0.0259123 1.41272e-10 -7.48105e-11 -1.08254e-10 2.22167 -0.733487 -0.20892 1.83441e-15 6.68032e-14 1.46099e-15 -20.9551 12.0394 -1.04461 4.10027 -1.83979 -6.42928 -0.00149947 0.866028 -0.121664 -1.41862e-10 3.36541e-12 1.62832e-10 -2.44312e-10 5.74475e-12 2.81903e-10 -1.41867e-10 3.37106e-12 1.62834e-10 -7.73091 5.47488 -0.417314 -1.41861e-10 3.36807e-12 1.6283e-10 -2.90554 0.965183 -0.102902 -1.41873e-10 3.36991e-12 1.62834e-10 -10.2786 0.731801 -0.0259123 -1.4186e-10 3.36977e-12 1.62827e-10 -2.22167 -0.733487 0.20892 -2.03217e-16 0.0 -3.88251e-19 2.41903 -6.05169 3.20536 0.0476855 10.7231 0.19096 -1.65686 -6.25257 -6.43157 2.03217e-16 0.0 3.88251e-19 -2.02963 -4.69423 -4.66459 -0.035091 7.90947 -0.120983 1.13099 -3.27552 4.87162
7.109000000000009 83.7613 -7.3419300000000005 -35.5429 89.157 -37.33 -1.45219 4.26124 3.05411 -0.172967 -0.203029 0.893353 5.44825 4.84419 2.55728 -4.21821 -8.98964 3.8366 -0.0 0.0 0.0 -0.0 0.0 0.0 7.30914e-15 1.36249e-13 2.85753e-15 46.4577 20.691 -2.01552 -9.93034 -5.18046 16.2012 -0.0271727 -9.93998 -1.39544 3.24636e-10 -1.54323e-10 -1.97171e-10 5.62381e-10 -2.68757e-10 -3.36164e-10 3.24644e-10 -1.54321e-10 -1.97182e-10 7.73091 5.47488 0.417314 3.24637e-10 -1.54324e-10 -1.9717e-10 2.90554 0.965183 0.102902 3.24648e-10 -1.54325e-10 -1.97175e-10 10.2786 0.731801 0.0259123 3.24636e-10 -1.54322e-10 -1.97179e-10 2.22167 -0.733487 -0.20892 7.43252e-15 1.3624e-13 2.61215e-15 -42.5892 24.7716 -2.31465 7.99574 -3.71218 -13.2578 0.000920619 1.7688 -0.248584 -2.29159e-10 3.04555e-12 3.15733e-10 -3.94413e-10 5.09863e-12 5.46488e-10 -2.29161e-10 3.05351e-12 3.1574e-10 -7.73091 5.47488 -0.417314 -2.29155e-10 3.04998e-12 3.15728e-10 -2.90554 0.965183 -0.102902 -2.29166e-10 3.05439e-12 3.15735e-10 -10.2786 0.731801 -0.0259123 -2.29159e-10 3.05385e-12 3.15726e-10 -2.22167 -0.733487 0.20892 -2.03217e-16 0.0 -3.88251e-19 4.30648 -7.7361 6.74685 0.0336428 19.4311 0.421966 -5.00627 -14.6408 -13.7538 2.03217e-16 0.0 3.88251e-19 -4.47729 -7.06025 -9.66604 -0.0133368 17.5194 -0.331906 3.14691 -10.3859 10.3078
7.329000000000008 83.7182 -7.52104 -17.6897 89.2184 -19.4875 -2.54394 6.22139 4.46925 -0.306983 -0.294333 1.29292 7.79474 7.03885 3.74563 -5.71176 -13.034 5.68078 -0.0 0.0 0.0 -0.0 0.0 0.0 1.13881e-14 2.004e-13 4.95098e-15 68.3128 30.1489 -3.18318 -13.5171 -7.20821 23.727 -0.2065 -14.4892 -2.07009 4.8473e-10 -2.24565e-10 -3.24931e-10 8.40014e-10 -3.90948e-10 -5.54968e-10 4.84738e-10 -2.24565e-10 -3.2494e-10 7.73091 5.47488 0.417314 4.84731e-10 -2.24567e-10 -3.24933e-10 2.90554 0.965183 0.102902 4.84741e-10 -2.24568e-10 -3.24939e-10 10.2786 0.731801 0.0259123 4.8473e-10 -2.24564e-10 -3.24947e-10 2.22167 -0.733487 -0.20892 1.15638e-14 2.00385e-13 4.78054e-15 -61.2842 36.0641 -3.79246 11.0838 -5.24194 -19.362 0.00654489 2.59804 -0.365325 -3.64644e-10 9.97635e-12 4.88325e-10 -6.27712e-10 1.70307e-11 8.4539e-10 -3.64642e-10 9.98595e-12 4.88336e-10 -7.73091 5.47488 -0.417314 -3.64637e-10 9.98195e-12 4.88317e-10 -2.90554 0.965183 -0.102902 -3.64646e-10 9.98846e-12 4.88328e-10 -10.2786 0.731801 -0.0259123 -3.64644e-10 9.98765e-12 4.88317e-10 -2.22167 -0.733487 0.20892 -2.03217e-16 0.0 -3.88251e-19 6.10326 -9.22514 9.83639 -0.0471288 27.289 0.65867 -9.86181 -21.4631 -20.8749 2.03217e-16 0.0 3.88251e-19 -7.0482 -9.00944 -14.1716 0.0724778 26.0595 -0.547092 6.12788 -16.4522 15.49
7.579000000000008 83.6652 -7.715310000000001 6.4322 89.2223 4.5795 -3.50664 7.63693 5.49476 -0.369807 -0.360721 1.57635 9.35786 8.49918 4.58759 -6.49418 -15.6755 7.04118 -0.0 0.0 0.0 -0.0 0.0 0.0 1.18269e-14 2.51323e-13 9.59136e-15 83.8436 36.7094 -4.19959 -15.6918 -8.40401 29.0247 -0.397984 -17.6501 -2.56298 5.8665e-10 -2.71632e-10 -5.498e-10 1.01814e-09 -4.72328e-10 -9.426e-10 5.86657e-10 -2.71632e-10 -5.49807e-10 7.73091 5.47488 0.417314 5.86651e-10 -2.71634e-10 -5.49803e-10 2.90554 0.965183 0.102902 5.8666e-10 -2.71635e-10 -5.49811e-10 10.2786 0.731801 0.0259123 5.8665e-10 -2.71632e-10 -5.49819e-10 2.22167 -0.733487 -0.20892 1.20281e-14 2.51305e-13 9.49197e-15 -73.8192 43.8073 -5.18122 13.0106 -6.18308 -23.5837 0.01292 3.24349 -0.456335 -6.20596e-10 3.50338e-11 7.10145e-10 -1.06901e-09 6.04083e-11 1.23009e-09 -6.20592e-10 3.50434e-11 7.10157e-10 -7.73091 5.47488 -0.417314 -6.20587e-10 3.50391e-11 7.10135e-10 -2.90554 0.965183 -0.102902 -6.20596e-10 3.50465e-11 7.10147e-10 -10.2786 0.731801 -0.0259123 -6.20596e-10 3.50457e-11 7.10135e-10 -2.22167 -0.733487 0.20892 -2.03217e-16 0.0 -3.88251e-19 7.26879 -10.3225 11.736 -0.154336 33.0231 0.853484 -14.164 -25.6248 -26.0671 2.03217e-16 0.0 3.88251e-19 -9.11621 -10.1319 -17.3178 0.176178 31.9258 -0.721246 8.90521 -20.4511 19.3865
